<svg xmlns="http://www.w3.org/2000/svg" xmlns:xlink="http://www.w3.org/1999/xlink" width="2000" zoomAndPan="magnify" viewBox="0 0 1500 449.999984" height="600" preserveAspectRatio="xMidYMid meet" version="1.0"><defs><g/></defs><path stroke-linecap="butt" transform="matrix(0.75, 0, 0, 0.75, 69.511332, 111.374991)" fill="none" stroke-linejoin="miter" d="M 60.677604 139.744814 L 60.974479 105.75002 L 30.974476 123.302105 L 18.828642 102.119811 L 48.828644 85.083352 L 18.828642 68.416684 L 30.974476 46.864599 L 60.974479 64.494808 L 60.677604 30.494806 L 85.271355 30.494806 L 84.97448 64.494808 L 114.677608 46.864599 L 127.120317 68.416684 L 97.120315 85.083352 L 127.120317 102.119811 L 114.677608 123.302105 L 84.97448 105.75002 L 85.271355 139.744814 Z M 228.438033 258.927115 C 212.094282 258.927115 197.651573 255.395865 185.109905 248.333364 C 172.563029 241.270864 162.740111 231.46878 155.630736 218.927112 C 148.568235 206.385444 145.036985 192.11461 145.036985 176.114609 C 145.036985 159.916691 148.568235 145.671898 155.630736 133.375022 C 162.740111 121.031271 172.563029 111.328145 185.109905 104.265645 C 197.651573 97.156269 212.094282 93.604186 228.438033 93.604186 C 244.833868 93.604186 259.302619 97.156269 271.844287 104.265645 C 284.385954 111.328145 294.188038 121.031271 301.250539 133.375022 C 308.359914 145.671898 311.917206 159.916691 311.917206 176.114609 C 311.917206 192.11461 308.359914 206.385444 301.250539 218.927112 C 294.188038 231.46878 284.385954 241.270864 271.844287 248.333364 C 259.302619 255.395865 244.833868 258.927115 228.438033 258.927115 Z M 170.516154 176.114609 C 170.516154 187.671901 172.984904 197.843777 177.922404 206.630236 C 182.911988 215.421903 189.75053 222.234404 198.443239 227.078154 C 207.13074 231.916696 217.130741 234.333363 228.438033 234.333363 C 239.797409 234.333363 249.818243 231.916696 258.510952 227.078154 C 267.203661 222.234404 274.016162 215.421903 278.953662 206.630236 C 283.943246 197.843777 286.438038 187.671901 286.438038 176.114609 C 286.438038 164.609399 283.943246 154.51044 278.953662 145.82294 C 274.016162 137.083356 267.203661 130.239605 258.510952 125.302105 C 249.818243 120.364604 239.797409 117.895854 228.438033 117.895854 C 217.130741 117.895854 207.13074 120.364604 198.443239 125.302105 C 189.75053 130.239605 182.911988 137.083356 177.922404 145.82294 C 172.984904 154.51044 170.516154 164.609399 170.516154 176.114609 Z M 425.05784 258.927115 C 412.714089 258.927115 401.328672 256.557323 390.912004 251.812531 C 380.490128 247.072947 371.750544 240.65628 364.688044 232.557321 L 364.688044 315.661494 L 339.208875 315.661494 L 339.208875 97.526061 L 360.172419 97.526061 L 363.208877 121.822938 C 370.271378 112.932312 379.10992 106.020853 389.724504 101.083353 C 400.344297 96.093769 412.120339 93.604186 425.05784 93.604186 C 440.609925 93.604186 454.412009 97.208352 466.464093 104.416686 C 478.510969 111.578145 487.969303 121.328146 494.828679 133.671897 C 501.693263 145.968773 505.125555 160.114607 505.125555 176.114609 C 505.125555 192.11461 501.693263 206.338569 494.828679 218.781279 C 487.969303 231.171905 478.510969 240.973989 466.464093 248.187531 C 454.412009 255.343781 440.609925 258.927115 425.05784 258.927115 Z M 363.802627 176.114609 C 363.802627 187.421901 366.271377 197.494819 371.208878 206.338569 C 376.146378 215.125028 382.958879 221.989612 391.651588 226.927113 C 400.391172 231.864613 410.417214 234.333363 421.724507 234.333363 C 433.276591 234.333363 443.401592 231.864613 452.094301 226.927113 C 460.781801 221.989612 467.547427 215.125028 472.385969 206.338569 C 477.224511 197.494819 479.646386 187.421901 479.646386 176.114609 C 479.646386 164.807316 477.224511 154.76044 472.385969 145.968773 C 467.547427 137.130231 460.781801 130.239605 452.094301 125.302105 C 443.401592 120.364604 433.276591 117.895854 421.724507 117.895854 C 410.417214 117.895854 400.391172 120.364604 391.651588 125.302105 C 382.958879 130.239605 376.146378 137.130231 371.208878 145.968773 C 366.271377 154.76044 363.802627 164.807316 363.802627 176.114609 Z M 600.760979 258.927115 C 584.958894 258.927115 570.984935 255.44274 558.839101 248.484406 C 546.740141 241.520864 537.234932 231.765655 530.323473 219.223987 C 523.45889 206.682319 520.026598 192.312527 520.026598 176.114609 C 520.026598 159.916691 523.45889 145.625023 530.323473 133.229189 C 537.234932 120.786479 546.787016 111.083354 558.984934 104.119811 C 571.234935 97.109394 585.255769 93.604186 601.057854 93.604186 C 617.849522 93.604186 632.39119 97.552102 644.682857 105.453145 C 657.031817 113.302104 666.484942 124.166688 673.052651 138.041689 C 679.672443 151.921898 682.656819 168.041691 682.016194 186.411484 L 545.802641 186.411484 C 547.828683 201.177111 553.802642 212.979195 563.724518 221.817737 C 573.651602 230.604196 586.094311 235.00003 601.057854 235.00003 C 611.380771 235.00003 620.787022 232.78128 629.276606 228.333363 C 637.771398 223.843779 644.438066 217.468779 649.276608 209.223986 L 678.08911 209.223986 C 671.818276 224.583362 661.797442 236.703155 648.016191 245.593781 C 634.292232 254.479198 618.537022 258.927115 600.760979 258.927115 Z M 546.099516 163.968774 L 656.537025 163.968774 C 653.917233 149.598982 647.599524 138.291689 637.573482 130.041688 C 627.552648 121.750021 615.375563 117.598979 601.057854 117.598979 C 586.490144 117.598979 574.245352 121.848979 564.318268 130.338563 C 554.396392 138.833356 548.318267 150.04169 546.099516 163.968774 Z M 708.740154 255.000031 L 708.740154 97.526061 L 729.698489 97.526061 L 732.365156 120.562521 C 739.281823 111.083354 747.625574 104.21877 757.401616 99.973978 C 767.229742 95.723977 777.401618 93.604186 787.917243 93.604186 C 808.953703 93.604186 825.323496 100.291686 837.026622 113.677104 C 848.781832 127.00523 854.656832 144.88544 854.656832 167.302108 L 854.656832 255.000031 L 829.177663 255.000031 L 829.177663 169.744816 C 829.177663 153.744815 825.177663 141.104189 817.177662 131.822939 C 809.177662 122.536479 798.313078 117.895854 784.58391 117.895854 C 774.859951 117.895854 766.193283 120.265646 758.589116 125.00523 C 751.031824 129.750022 745.083907 136.463564 740.734948 145.156273 C 736.391198 153.843774 734.219323 163.968774 734.219323 175.520859 L 734.219323 255.000031 Z M 891.380793 255.000031 L 891.380793 97.526061 L 912.339128 97.526061 L 914.70892 117.229187 C 926.859963 101.479186 943.969339 93.604186 966.042257 93.604186 C 978.531842 93.604186 989.547468 96.244811 999.078718 101.526061 C 1008.604761 106.760437 1015.990178 114.442729 1021.224553 124.562521 C 1033.964138 103.921895 1053.495389 93.604186 1079.8131 93.604186 C 1099.615184 93.604186 1115.417269 99.973978 1127.219353 112.713562 C 1139.068313 125.453146 1144.995396 142.833356 1144.995396 164.859399 L 1144.995396 255.000031 L 1119.516228 255.000031 L 1119.516228 169.151066 C 1119.516228 153.546899 1115.615186 141.104189 1107.813102 131.822939 C 1100.057893 122.536479 1089.589142 117.895854 1076.406849 117.895854 C 1062.875598 117.895854 1051.912056 122.760438 1043.516222 132.489605 C 1035.125596 142.166689 1030.927679 155.10419 1030.927679 171.302108 L 1030.927679 255.000031 L 1005.44851 255.000031 L 1005.44851 169.151066 C 1005.44851 153.546899 1001.547468 141.104189 993.745385 131.822939 C 985.990176 122.536479 975.521425 117.895854 962.339132 117.895854 C 948.807881 117.895854 937.844339 122.760438 929.448505 132.489605 C 921.057879 142.166689 916.859962 155.10419 916.859962 171.302108 L 916.859962 255.000031 Z M 1233.276653 257.44274 C 1214.266235 257.44274 1199.401651 253.145865 1188.6829 244.557322 C 1177.969357 235.963572 1172.609982 224.286487 1172.609982 209.520861 C 1172.609982 195.151068 1177.547482 183.718776 1187.427691 175.229192 C 1197.349567 166.7344 1210.511026 162.484399 1226.906861 162.484399 L 1291.271449 162.484399 L 1291.271449 156.708357 C 1291.271449 144.364606 1287.422491 134.708355 1279.714157 127.750022 C 1272.011031 120.734396 1261.495405 117.229187 1248.162071 117.229187 C 1238.042279 117.229187 1229.22457 119.526063 1221.719361 124.119813 C 1214.266235 128.66148 1209.224568 134.760439 1206.609984 142.411481 L 1180.833941 142.411481 C 1184.240191 127.25523 1191.969358 115.328146 1204.016234 106.640645 C 1216.068319 97.947936 1230.682903 93.604186 1247.865196 93.604186 C 1261.594364 93.604186 1273.620406 96.192727 1283.938115 101.380228 C 1294.261033 106.515645 1302.307909 113.697937 1308.083951 122.932313 C 1313.865201 132.119814 1316.750618 142.760439 1316.750618 154.859399 L 1316.750618 255.000031 L 1295.792283 255.000031 L 1293.047491 233.151071 C 1278.677698 249.343781 1258.755822 257.44274 1233.276653 257.44274 Z M 1198.094359 209.223986 C 1198.094359 216.880237 1201.328734 223.052112 1207.797485 227.744821 C 1214.266235 232.385446 1223.078736 234.703155 1234.240195 234.703155 C 1245.151654 234.703155 1254.85478 232.583363 1263.349572 228.333363 C 1271.839156 224.088571 1278.604782 218.21357 1283.64124 210.708361 C 1288.729783 203.197944 1291.370408 194.609402 1291.568324 184.932318 L 1227.870403 184.932318 C 1219.12561 184.932318 1211.96936 187.104193 1206.386026 191.447943 C 1200.854776 195.791693 1198.094359 201.718777 1198.094359 209.223986 Z M 1421.724585 258.927115 C 1405.9225 258.927115 1391.948541 255.395865 1379.802706 248.333364 C 1367.703747 241.270864 1358.151663 231.46878 1351.136037 218.927112 C 1344.172495 206.385444 1340.693328 192.11461 1340.693328 176.114609 C 1340.693328 160.114607 1344.172495 145.921898 1351.136037 133.526064 C 1358.151663 121.083354 1367.703747 111.328145 1379.802706 104.265645 C 1391.948541 97.156269 1405.9225 93.604186 1421.724585 93.604186 C 1434.860002 93.604186 1446.886045 96.093769 1457.797504 101.083353 C 1468.708963 106.020853 1477.896464 112.885437 1485.349589 121.671896 C 1492.860007 130.463563 1497.94334 140.833356 1500.610007 152.781273 L 1474.761047 152.781273 C 1470.120422 141.822939 1463.083963 133.276064 1453.65167 127.156271 C 1444.266253 120.984396 1433.625627 117.895854 1421.724585 117.895854 C 1411.011042 117.895854 1401.45375 120.364604 1393.063124 125.302105 C 1384.66729 130.239605 1378.073539 137.130231 1373.281872 145.968773 C 1368.542289 154.76044 1366.172497 164.807316 1366.172497 176.114609 C 1366.172497 187.421901 1368.542289 197.494819 1373.281872 206.338569 C 1378.073539 215.125028 1384.66729 221.989612 1393.063124 226.927113 C 1401.45375 231.864613 1411.011042 234.333363 1421.724585 234.333363 C 1434.464169 234.333363 1445.625628 230.953155 1455.203754 224.187529 C 1464.833963 217.421904 1471.573547 208.385444 1475.427714 197.078152 L 1502.386049 197.078152 C 1497.151674 216.08857 1487.34959 231.151071 1472.979797 242.260447 C 1458.615212 253.369823 1441.526669 258.927115 1421.724585 258.927115 Z M 1528.79751 255.000031 L 1528.79751 97.526061 L 1549.761053 97.526061 L 1552.797511 124.859396 C 1558.42772 115.328146 1565.438137 108.390645 1573.833971 104.046895 C 1582.229805 99.697936 1593.115223 97.526061 1606.500641 97.526061 L 1620.719392 97.526061 L 1620.719392 121.229188 L 1605.240224 121.229188 C 1595.761056 121.229188 1587.167306 123.156271 1579.46418 127.00523 C 1571.761055 130.807313 1565.636054 137.177106 1561.094387 146.119815 C 1556.55272 155.005232 1554.281887 166.932316 1554.281887 181.890651 L 1554.281887 255.000031 Z M 1715.349607 258.927115 C 1699.005856 258.927115 1684.563147 255.395865 1672.016271 248.333364 C 1659.474603 241.270864 1649.651686 231.46878 1642.537102 218.927112 C 1635.47981 206.385444 1631.948559 192.11461 1631.948559 176.114609 C 1631.948559 159.916691 1635.47981 145.671898 1642.537102 133.375022 C 1649.651686 121.031271 1659.474603 111.328145 1672.016271 104.265645 C 1684.563147 97.156269 1699.005856 93.604186 1715.349607 93.604186 C 1731.745442 93.604186 1746.214193 97.156269 1758.755861 104.265645 C 1771.297528 111.328145 1781.099613 121.031271 1788.162113 133.375022 C 1795.271489 145.671898 1798.828781 159.916691 1798.828781 176.114609 C 1798.828781 192.11461 1795.271489 206.385444 1788.162113 218.927112 C 1781.099613 231.46878 1771.297528 241.270864 1758.755861 248.333364 C 1746.214193 255.395865 1731.745442 258.927115 1715.349607 258.927115 Z M 1657.427728 176.114609 C 1657.427728 187.671901 1659.896478 197.843777 1664.833978 206.630236 C 1669.823562 215.421903 1676.662104 222.234404 1685.349605 227.078154 C 1694.042314 231.916696 1704.042315 234.333363 1715.349607 234.333363 C 1726.708983 234.333363 1736.729817 231.916696 1745.422526 227.078154 C 1754.115235 222.234404 1760.927736 215.421903 1765.865236 206.630236 C 1770.85482 197.843777 1773.344404 187.671901 1773.344404 176.114609 C 1773.344404 164.609399 1770.85482 154.51044 1765.865236 145.82294 C 1760.927736 137.083356 1754.115235 130.239605 1745.422526 125.302105 C 1736.729817 120.364604 1726.708983 117.895854 1715.349607 117.895854 C 1704.042315 117.895854 1694.042314 120.364604 1685.349605 125.302105 C 1676.662104 130.239605 1669.823562 137.083356 1664.833978 145.82294 C 1659.896478 154.51044 1657.427728 164.609399 1657.427728 176.114609 Z M 1657.427728 176.114609 " stroke="#ffffff" stroke-width="12.13568" stroke-opacity="1" stroke-miterlimit="4"/><g fill="#000000" fill-opacity="1"><g transform="translate(69.523051, 302.624976)"><g><path d="M 45.515625 -86.46875 L 45.734375 -111.953125 L 23.203125 -98.75 L 14.109375 -114.6875 L 36.640625 -127.421875 L 14.109375 -139.9375 L 23.203125 -156.09375 L 45.734375 -142.90625 L 45.515625 -168.390625 L 63.9375 -168.390625 L 63.71875 -142.90625 L 86.015625 -156.09375 L 95.34375 -139.9375 L 72.8125 -127.421875 L 95.34375 -114.6875 L 86.015625 -98.75 L 63.71875 -111.953125 L 63.9375 -86.46875 Z M 45.515625 -86.46875 "/></g></g></g><g fill="#000000" fill-opacity="1"><g transform="translate(166.455897, 302.624976)"><g><path d="M 74.40625 2.953125 C 62.113281 2.953125 51.265625 0.300781 41.859375 -5 C 32.460938 -10.3125 25.109375 -17.671875 19.796875 -27.078125 C 14.484375 -36.484375 11.828125 -47.175781 11.828125 -59.15625 C 11.828125 -71.289062 14.484375 -81.984375 19.796875 -91.234375 C 25.109375 -100.492188 32.460938 -107.78125 41.859375 -113.09375 C 51.265625 -118.40625 62.113281 -121.0625 74.40625 -121.0625 C 86.695312 -121.0625 97.546875 -118.40625 106.953125 -113.09375 C 116.359375 -107.78125 123.710938 -100.492188 129.015625 -91.234375 C 134.328125 -81.984375 136.984375 -71.289062 136.984375 -59.15625 C 136.984375 -47.175781 134.328125 -36.484375 129.015625 -27.078125 C 123.710938 -17.671875 116.359375 -10.3125 106.953125 -5 C 97.546875 0.300781 86.695312 2.953125 74.40625 2.953125 Z M 30.953125 -59.15625 C 30.953125 -50.507812 32.804688 -42.882812 36.515625 -36.28125 C 40.234375 -29.6875 45.351562 -24.566406 51.875 -20.921875 C 58.40625 -17.285156 65.914062 -15.46875 74.40625 -15.46875 C 82.90625 -15.46875 90.414062 -17.285156 96.9375 -20.921875 C 103.457031 -24.566406 108.578125 -29.6875 112.296875 -36.28125 C 116.015625 -42.882812 117.875 -50.507812 117.875 -59.15625 C 117.875 -67.800781 116.015625 -75.382812 112.296875 -81.90625 C 108.578125 -88.4375 103.457031 -93.554688 96.9375 -97.265625 C 90.414062 -100.984375 82.90625 -102.84375 74.40625 -102.84375 C 65.914062 -102.84375 58.40625 -100.984375 51.875 -97.265625 C 45.351562 -93.554688 40.234375 -88.4375 36.515625 -81.90625 C 32.804688 -75.382812 30.953125 -67.800781 30.953125 -59.15625 Z M 30.953125 -59.15625 "/></g></g></g><g fill="#000000" fill-opacity="1"><g transform="translate(302.753506, 302.624976)"><g><path d="M 85.5625 2.953125 C 76.300781 2.953125 67.765625 1.171875 59.953125 -2.390625 C 52.140625 -5.953125 45.582031 -10.769531 40.28125 -16.84375 L 40.28125 45.515625 L 21.15625 45.515625 L 21.15625 -118.09375 L 36.859375 -118.09375 L 39.140625 -99.890625 C 44.453125 -106.566406 51.085938 -111.765625 59.046875 -115.484375 C 67.015625 -119.203125 75.851562 -121.0625 85.5625 -121.0625 C 97.238281 -121.0625 107.585938 -118.367188 116.609375 -112.984375 C 125.640625 -107.597656 132.734375 -100.273438 137.890625 -91.015625 C 143.046875 -81.765625 145.625 -71.144531 145.625 -59.15625 C 145.625 -47.175781 143.046875 -36.519531 137.890625 -27.1875 C 132.734375 -17.863281 125.640625 -10.507812 116.609375 -5.125 C 107.585938 0.257812 97.238281 2.953125 85.5625 2.953125 Z M 39.59375 -59.15625 C 39.59375 -50.664062 41.453125 -43.117188 45.171875 -36.515625 C 48.890625 -29.921875 54.007812 -24.765625 60.53125 -21.046875 C 67.050781 -17.328125 74.554688 -15.46875 83.046875 -15.46875 C 91.703125 -15.46875 99.289062 -17.328125 105.8125 -21.046875 C 112.332031 -24.765625 117.410156 -29.921875 121.046875 -36.515625 C 124.691406 -43.117188 126.515625 -50.664062 126.515625 -59.15625 C 126.515625 -67.65625 124.691406 -75.203125 121.046875 -81.796875 C 117.410156 -88.398438 112.332031 -93.554688 105.8125 -97.265625 C 99.289062 -100.984375 91.703125 -102.84375 83.046875 -102.84375 C 74.554688 -102.84375 67.050781 -100.984375 60.53125 -97.265625 C 54.007812 -93.554688 48.890625 -88.398438 45.171875 -81.796875 C 41.453125 -75.203125 39.59375 -67.65625 39.59375 -59.15625 Z M 39.59375 -59.15625 "/></g></g></g><g fill="#000000" fill-opacity="1"><g transform="translate(447.6977, 302.624976)"><g><path d="M 72.359375 2.953125 C 60.523438 2.953125 50.054688 0.335938 40.953125 -4.890625 C 31.859375 -10.128906 24.726562 -17.445312 19.5625 -26.84375 C 14.40625 -36.25 11.828125 -47.019531 11.828125 -59.15625 C 11.828125 -71.289062 14.40625 -82.023438 19.5625 -91.359375 C 24.726562 -100.691406 31.898438 -107.972656 41.078125 -113.203125 C 50.253906 -118.441406 60.757812 -121.0625 72.59375 -121.0625 C 85.175781 -121.0625 96.09375 -118.101562 105.34375 -112.1875 C 114.601562 -106.269531 121.695312 -98.113281 126.625 -87.71875 C 131.5625 -77.320312 133.800781 -65.222656 133.34375 -51.421875 L 31.171875 -51.421875 C 32.691406 -40.347656 37.164062 -31.507812 44.59375 -24.90625 C 52.03125 -18.3125 61.363281 -15.015625 72.59375 -15.015625 C 80.320312 -15.015625 87.375 -16.679688 93.75 -20.015625 C 100.125 -23.359375 105.128906 -28.140625 108.765625 -34.359375 L 130.390625 -34.359375 C 125.679688 -22.828125 118.171875 -13.722656 107.859375 -7.046875 C 97.546875 -0.378906 85.710938 2.953125 72.359375 2.953125 Z M 31.40625 -68.265625 L 114.234375 -68.265625 C 112.253906 -79.035156 107.507812 -87.53125 100 -93.75 C 92.5 -99.96875 83.363281 -103.078125 72.59375 -103.078125 C 61.664062 -103.078125 52.484375 -99.890625 45.046875 -93.515625 C 37.617188 -87.148438 33.070312 -78.734375 31.40625 -68.265625 Z M 31.40625 -68.265625 "/></g></g></g><g fill="#000000" fill-opacity="1"><g transform="translate(579.899567, 302.624976)"><g><path d="M 21.15625 0 L 21.15625 -118.09375 L 36.859375 -118.09375 L 38.90625 -100.796875 C 44.0625 -107.929688 50.316406 -113.09375 57.671875 -116.28125 C 65.035156 -119.46875 72.660156 -121.0625 80.546875 -121.0625 C 96.328125 -121.0625 108.613281 -116.050781 117.40625 -106.03125 C 126.207031 -96.019531 130.609375 -82.597656 130.609375 -65.765625 L 130.609375 0 L 111.5 0 L 111.5 -63.9375 C 111.5 -75.925781 108.5 -85.40625 102.5 -92.375 C 96.507812 -99.351562 88.359375 -102.84375 78.046875 -102.84375 C 70.765625 -102.84375 64.28125 -101.0625 58.59375 -97.5 C 52.90625 -93.9375 48.429688 -88.894531 45.171875 -82.375 C 41.910156 -75.851562 40.28125 -68.269531 40.28125 -59.625 L 40.28125 0 Z M 21.15625 0 "/></g></g></g><g fill="#000000" fill-opacity="1"><g transform="translate(716.879842, 302.624976)"><g><path d="M 21.15625 0 L 21.15625 -118.09375 L 36.859375 -118.09375 L 38.6875 -103.3125 C 47.78125 -115.144531 60.597656 -121.0625 77.140625 -121.0625 C 86.546875 -121.0625 94.8125 -119.085938 101.9375 -115.140625 C 109.070312 -111.191406 114.609375 -105.425781 118.546875 -97.84375 C 128.109375 -113.320312 142.75 -121.0625 162.46875 -121.0625 C 177.332031 -121.0625 189.203125 -116.28125 198.078125 -106.71875 C 206.953125 -97.164062 211.390625 -84.117188 211.390625 -67.578125 L 211.390625 0 L 192.28125 0 L 192.28125 -64.390625 C 192.28125 -76.078125 189.359375 -85.40625 183.515625 -92.375 C 177.671875 -99.351562 169.820312 -102.84375 159.96875 -102.84375 C 149.800781 -102.84375 141.566406 -99.203125 135.265625 -91.921875 C 128.972656 -84.640625 125.828125 -74.929688 125.828125 -62.796875 L 125.828125 0 L 106.71875 0 L 106.71875 -64.390625 C 106.71875 -76.078125 103.796875 -85.40625 97.953125 -92.375 C 92.117188 -99.351562 84.269531 -102.84375 74.40625 -102.84375 C 64.238281 -102.84375 56.007812 -99.203125 49.71875 -91.921875 C 43.425781 -84.640625 40.28125 -74.929688 40.28125 -62.796875 L 40.28125 0 Z M 21.15625 0 "/></g></g></g><g fill="#000000" fill-opacity="1"><g transform="translate(934.637547, 302.624976)"><g><path d="M 59.84375 1.828125 C 45.582031 1.828125 34.429688 -1.394531 26.390625 -7.84375 C 18.347656 -14.289062 14.328125 -23.050781 14.328125 -34.125 C 14.328125 -44.894531 18.046875 -53.46875 25.484375 -59.84375 C 32.921875 -66.21875 42.78125 -69.40625 55.0625 -69.40625 L 103.3125 -69.40625 L 103.3125 -73.71875 C 103.3125 -82.976562 100.425781 -90.222656 94.65625 -95.453125 C 88.894531 -100.691406 81.007812 -103.3125 71 -103.3125 C 63.414062 -103.3125 56.816406 -101.601562 51.203125 -98.1875 C 45.585938 -94.769531 41.796875 -90.179688 39.828125 -84.421875 L 20.484375 -84.421875 C 23.054688 -95.796875 28.851562 -104.742188 37.875 -111.265625 C 46.90625 -117.796875 57.867188 -121.0625 70.765625 -121.0625 C 81.078125 -121.0625 90.101562 -119.125 97.84375 -115.25 C 105.582031 -111.382812 111.613281 -106 115.9375 -99.09375 C 120.257812 -92.195312 122.421875 -84.195312 122.421875 -75.09375 L 122.421875 0 L 106.71875 0 L 104.671875 -16.390625 C 93.898438 -4.242188 78.957031 1.828125 59.84375 1.828125 Z M 33.453125 -34.359375 C 33.453125 -28.597656 35.878906 -23.972656 40.734375 -20.484375 C 45.585938 -16.992188 52.1875 -15.25 60.53125 -15.25 C 68.71875 -15.25 75.992188 -16.835938 82.359375 -20.015625 C 88.734375 -23.203125 93.816406 -27.601562 97.609375 -33.21875 C 101.410156 -38.832031 103.382812 -45.28125 103.53125 -52.5625 L 55.75 -52.5625 C 49.226562 -52.5625 43.878906 -50.929688 39.703125 -47.671875 C 35.535156 -44.410156 33.453125 -39.972656 33.453125 -34.359375 Z M 33.453125 -34.359375 "/></g></g></g><g fill="#000000" fill-opacity="1"><g transform="translate(1063.198727, 302.624976)"><g><path d="M 72.59375 2.953125 C 60.757812 2.953125 50.289062 0.300781 41.1875 -5 C 32.082031 -10.3125 24.910156 -17.671875 19.671875 -27.078125 C 14.441406 -36.484375 11.828125 -47.175781 11.828125 -59.15625 C 11.828125 -71.144531 14.441406 -81.800781 19.671875 -91.125 C 24.910156 -100.457031 32.082031 -107.78125 41.1875 -113.09375 C 50.289062 -118.40625 60.757812 -121.0625 72.59375 -121.0625 C 82.445312 -121.0625 91.46875 -119.203125 99.65625 -115.484375 C 107.851562 -111.765625 114.757812 -106.601562 120.375 -100 C 125.988281 -93.40625 129.78125 -85.632812 131.75 -76.6875 L 112.40625 -76.6875 C 108.914062 -84.875 103.644531 -91.28125 96.59375 -95.90625 C 89.539062 -100.53125 81.539062 -102.84375 72.59375 -102.84375 C 64.550781 -102.84375 57.378906 -100.984375 51.078125 -97.265625 C 44.785156 -93.554688 39.859375 -88.398438 36.296875 -81.796875 C 32.734375 -75.203125 30.953125 -67.65625 30.953125 -59.15625 C 30.953125 -50.664062 32.734375 -43.117188 36.296875 -36.515625 C 39.859375 -29.921875 44.785156 -24.765625 51.078125 -21.046875 C 57.378906 -17.328125 64.550781 -15.46875 72.59375 -15.46875 C 82.144531 -15.46875 90.523438 -18.007812 97.734375 -23.09375 C 104.941406 -28.175781 109.984375 -34.96875 112.859375 -43.46875 L 133.109375 -43.46875 C 129.171875 -29.207031 121.816406 -17.90625 111.046875 -9.5625 C 100.273438 -1.21875 87.457031 2.953125 72.59375 2.953125 Z M 72.59375 2.953125 "/></g></g></g><g fill="#000000" fill-opacity="1"><g transform="translate(1194.945479, 302.624976)"><g><path d="M 21.15625 0 L 21.15625 -118.09375 L 36.859375 -118.09375 L 39.140625 -97.625 C 43.390625 -104.75 48.660156 -109.941406 54.953125 -113.203125 C 61.242188 -116.460938 69.394531 -118.09375 79.40625 -118.09375 L 90.109375 -118.09375 L 90.109375 -100.34375 L 78.5 -100.34375 C 71.375 -100.34375 64.925781 -98.898438 59.15625 -96.015625 C 53.394531 -93.140625 48.804688 -88.363281 45.390625 -81.6875 C 41.984375 -75.007812 40.28125 -66.0625 40.28125 -54.84375 L 40.28125 0 Z M 21.15625 0 "/></g></g></g><g fill="#000000" fill-opacity="1"><g transform="translate(1281.638863, 302.624976)"><g><path d="M 74.40625 2.953125 C 62.113281 2.953125 51.265625 0.300781 41.859375 -5 C 32.460938 -10.3125 25.109375 -17.671875 19.796875 -27.078125 C 14.484375 -36.484375 11.828125 -47.175781 11.828125 -59.15625 C 11.828125 -71.289062 14.484375 -81.984375 19.796875 -91.234375 C 25.109375 -100.492188 32.460938 -107.78125 41.859375 -113.09375 C 51.265625 -118.40625 62.113281 -121.0625 74.40625 -121.0625 C 86.695312 -121.0625 97.546875 -118.40625 106.953125 -113.09375 C 116.359375 -107.78125 123.710938 -100.492188 129.015625 -91.234375 C 134.328125 -81.984375 136.984375 -71.289062 136.984375 -59.15625 C 136.984375 -47.175781 134.328125 -36.484375 129.015625 -27.078125 C 123.710938 -17.671875 116.359375 -10.3125 106.953125 -5 C 97.546875 0.300781 86.695312 2.953125 74.40625 2.953125 Z M 30.953125 -59.15625 C 30.953125 -50.507812 32.804688 -42.882812 36.515625 -36.28125 C 40.234375 -29.6875 45.351562 -24.566406 51.875 -20.921875 C 58.40625 -17.285156 65.914062 -15.46875 74.40625 -15.46875 C 82.90625 -15.46875 90.414062 -17.285156 96.9375 -20.921875 C 103.457031 -24.566406 108.578125 -29.6875 112.296875 -36.28125 C 116.015625 -42.882812 117.875 -50.507812 117.875 -59.15625 C 117.875 -67.800781 116.015625 -75.382812 112.296875 -81.90625 C 108.578125 -88.4375 103.457031 -93.554688 96.9375 -97.265625 C 90.414062 -100.984375 82.90625 -102.84375 74.40625 -102.84375 C 65.914062 -102.84375 58.40625 -100.984375 51.875 -97.265625 C 45.351562 -93.554688 40.234375 -88.4375 36.515625 -81.90625 C 32.804688 -75.382812 30.953125 -67.800781 30.953125 -59.15625 Z M 30.953125 -59.15625 "/></g></g></g></svg>